<svg xmlns="http://www.w3.org/2000/svg" xmlns:xlink="http://www.w3.org/1999/xlink" width="500" zoomAndPan="magnify" viewBox="0 0 375 374.999991" height="500" preserveAspectRatio="xMidYMid meet" version="1.0"><defs><g/><clipPath id="3a893320ed"><path d="M 63 105.742188 L 99 105.742188 L 99 175 L 63 175 Z M 63 105.742188 " clip-rule="nonzero"/></clipPath><clipPath id="1da6b72827"><path d="M 67.976562 139.378906 L 93.71875 139.378906 L 93.71875 156 L 67.976562 156 Z M 67.976562 139.378906 " clip-rule="nonzero"/></clipPath></defs><g clip-path="url(#3a893320ed)"><path fill="#26a69a" d="M 84.726562 107.777344 C 83.585938 107.050781 80.644531 107.265625 79.820312 107.308594 C 79.09375 107.339844 78.355469 107.359375 77.625 107.441406 C 77.058594 107.507812 76.65625 107.671875 76.375 107.914062 C 79.15625 107.890625 81.945312 107.804688 84.726562 107.777344 Z M 83.507812 119.601562 C 83.40625 118.726562 83.386719 117.828125 83.386719 117.144531 C 82.59375 117.242188 81.800781 117.289062 81.035156 117.292969 C 79.726562 117.3125 78.28125 117.3125 76.898438 117.097656 C 76.886719 117.914062 76.804688 118.734375 76.945312 119.535156 C 79.140625 119.542969 81.324219 119.773438 83.507812 119.601562 Z M 84.964844 112.484375 C 84.933594 111.355469 84.796875 110.253906 84.855469 109.132812 C 81.839844 109.160156 78.824219 109.261719 75.8125 109.277344 C 75.785156 110.347656 76.261719 111.683594 76.421875 112.71875 C 76.4375 112.785156 76.433594 112.851562 76.429688 112.90625 C 77.664062 113.386719 79.289062 113.21875 80.53125 113.304688 C 81.890625 113.386719 84.441406 113.96875 84.964844 112.484375 Z M 86.683594 114.722656 C 87.601562 114.117188 87.273438 113.058594 86.285156 112.976562 C 85.683594 114.746094 83.335938 114.949219 81.378906 114.734375 C 80.136719 114.597656 78.878906 114.671875 77.640625 114.539062 C 76.449219 114.40625 75.8125 113.875 74.789062 113.453125 C 73.210938 112.800781 73.289062 114.542969 74.667969 115.058594 C 75.121094 115.261719 75.585938 115.421875 76.070312 115.53125 C 76.785156 115.6875 77.507812 115.816406 78.242188 115.867188 C 79.332031 115.941406 80.421875 115.957031 81.519531 115.925781 C 82.660156 115.894531 83.828125 115.75 84.929688 115.421875 C 85.152344 115.351562 85.375 115.285156 85.601562 115.207031 C 85.679688 115.160156 85.769531 115.136719 85.859375 115.121094 C 86.148438 115.011719 86.429688 114.890625 86.683594 114.722656 Z M 94.007812 170.589844 C 94.898438 170.191406 95.980469 169.863281 96.085938 168.769531 C 90.808594 170.882812 85.152344 171.8125 79.46875 171.503906 C 76.816406 171.363281 73.941406 171.78125 71.371094 170.996094 C 69.308594 170.367188 67.425781 169.367188 65.5 168.417969 C 65.71875 169.382812 66.09375 170.222656 66.730469 170.789062 C 70.980469 174.585938 78.992188 173.339844 84.109375 173.214844 C 86.085938 173.167969 88.046875 173.292969 89.914062 172.507812 C 91.308594 171.929688 92.636719 171.207031 94.007812 170.589844 Z M 96.613281 143.75 C 96.9375 140.082031 97.289062 136.066406 95.972656 132.539062 C 94.859375 129.570312 92.6875 127.609375 90.078125 125.910156 C 88.683594 125.011719 85.945312 124.292969 85.445312 122.5 C 84.914062 120.597656 85.363281 118.664062 85.378906 116.726562 C 85.160156 116.796875 84.933594 116.855469 84.710938 116.902344 C 84.730469 116.972656 84.742188 117.039062 84.742188 117.121094 C 84.742188 118.027344 84.746094 119.046875 84.945312 120.03125 C 85.035156 120.496094 84.691406 120.828125 84.332031 120.894531 C 84.417969 121.464844 84.53125 122.007812 84.699219 122.511719 C 84.910156 123.269531 85.285156 123.898438 85.675781 124.460938 C 86.128906 124.984375 86.605469 125.449219 87.132812 125.8125 C 88.167969 126.558594 89.222656 127.074219 90.117188 127.605469 C 91.023438 128.125 91.800781 128.640625 92.382812 129.210938 C 92.535156 129.34375 92.664062 129.484375 92.785156 129.632812 C 92.90625 129.773438 93.03125 129.902344 93.125 130.046875 C 93.304688 130.34375 93.507812 130.59375 93.601562 130.867188 C 93.859375 131.382812 93.933594 131.839844 94.011719 132.179688 C 94.082031 132.878906 94.058594 133.183594 94.019531 133.183594 C 93.96875 133.183594 93.898438 132.886719 93.753906 132.238281 C 93.636719 131.921875 93.53125 131.5 93.265625 131.039062 C 93.160156 130.792969 92.953125 130.578125 92.785156 130.308594 C 92.6875 130.183594 92.5625 130.070312 92.449219 129.9375 C 92.328125 129.8125 92.207031 129.679688 92.054688 129.5625 C 91.5 129.058594 90.746094 128.585938 89.84375 128.09375 C 88.945312 127.59375 87.878906 127.097656 86.765625 126.320312 C 86.203125 125.941406 85.667969 125.445312 85.167969 124.867188 C 84.71875 124.238281 84.296875 123.53125 84.066406 122.722656 C 83.875 122.15625 83.75 121.558594 83.65625 120.945312 C 81.332031 121.148438 79.011719 120.882812 76.679688 120.890625 C 76.675781 121.054688 76.664062 121.226562 76.644531 121.390625 C 76.617188 121.65625 76.589844 121.839844 76.566406 122.097656 C 76.519531 122.359375 76.46875 122.613281 76.421875 122.867188 C 76.382812 123.121094 76.3125 123.367188 76.226562 123.609375 C 76.148438 123.847656 76.089844 124.09375 75.992188 124.324219 C 75.769531 124.765625 75.601562 125.230469 75.304688 125.609375 C 75.167969 125.804688 75.039062 125.996094 74.910156 126.1875 C 74.75 126.355469 74.59375 126.523438 74.441406 126.691406 C 74.152344 127.039062 73.800781 127.296875 73.46875 127.5625 C 72.816406 128.117188 72.09375 128.492188 71.4375 128.835938 C 70.105469 129.503906 68.945312 130.058594 68.089844 130.792969 C 67.214844 131.5 66.679688 132.339844 66.402344 133.128906 C 66.109375 133.921875 66.058594 134.652344 66.03125 135.257812 C 66.011719 135.863281 66.035156 136.359375 66.046875 136.742188 C 66.085938 137.515625 66.09375 137.851562 66.042969 137.855469 C 65.996094 137.855469 65.90625 137.53125 65.785156 136.773438 C 65.726562 136.386719 65.667969 135.886719 65.652344 135.253906 C 65.640625 134.628906 65.660156 133.851562 65.945312 132.972656 C 66.222656 132.101562 66.796875 131.148438 67.722656 130.367188 C 68.632812 129.554688 69.851562 128.953125 71.148438 128.28125 C 71.789062 127.933594 72.464844 127.582031 73.066406 127.066406 C 73.375 126.8125 73.699219 126.578125 73.960938 126.253906 C 74.101562 126.101562 74.246094 125.964844 74.386719 125.8125 C 74.503906 125.636719 74.628906 125.5 74.75 125.320312 C 75.585938 124.113281 75.910156 122.339844 76 120.726562 C 75.929688 120.664062 75.875 120.578125 75.839844 120.488281 C 75.789062 120.417969 75.742188 120.34375 75.714844 120.242188 C 75.421875 119.167969 75.53125 118.070312 75.542969 116.972656 C 75.542969 116.917969 75.550781 116.867188 75.558594 116.824219 C 75.429688 116.785156 75.308594 116.746094 75.183594 116.703125 C 75.234375 118.117188 75.363281 119.53125 75.246094 120.941406 C 75.101562 122.660156 74.773438 124.867188 73.117188 125.828125 C 70.953125 127.082031 68.53125 127.648438 66.738281 129.546875 C 64.242188 132.1875 64.527344 135.976562 64.796875 139.351562 C 65.082031 142.882812 65.269531 146.445312 65.40625 149.980469 C 65.546875 153.65625 65.742188 157.339844 65.523438 161.011719 C 65.4375 162.480469 65.136719 164.75 65.277344 166.8125 C 65.292969 166.816406 65.3125 166.824219 65.328125 166.832031 C 65.605469 166.960938 65.875 167.097656 66.152344 167.238281 C 66.101562 166.914062 66.078125 166.585938 66.070312 166.273438 C 66.058594 165.585938 66.105469 164.929688 66.171875 164.292969 C 66.289062 163.015625 66.496094 161.835938 66.449219 160.714844 C 66.414062 159.566406 66.40625 158.480469 66.351562 157.429688 C 66.328125 156.910156 66.304688 156.398438 66.289062 155.902344 C 66.273438 155.65625 66.265625 155.414062 66.257812 155.171875 C 66.257812 154.925781 66.257812 154.691406 66.257812 154.457031 C 66.289062 150.699219 66.3125 147.769531 66.328125 145.535156 C 66.359375 143.300781 66.398438 141.757812 66.4375 140.773438 C 66.476562 139.792969 66.523438 139.367188 66.570312 139.367188 C 66.617188 139.367188 66.664062 139.792969 66.703125 140.773438 C 66.746094 141.757812 66.78125 143.300781 66.8125 145.53125 C 66.832031 147.765625 66.855469 150.6875 66.886719 154.4375 C 66.886719 154.671875 66.886719 154.914062 66.890625 155.152344 C 66.898438 155.390625 66.914062 155.636719 66.925781 155.882812 C 66.949219 156.375 66.976562 156.882812 67.003906 157.402344 C 67.0625 158.441406 67.082031 159.550781 67.121094 160.710938 C 67.171875 161.894531 66.953125 163.113281 66.84375 164.359375 C 66.785156 164.984375 66.734375 165.621094 66.75 166.261719 C 66.761719 166.589844 66.785156 166.925781 66.839844 167.246094 C 68.226562 166.433594 69.578125 166.078125 70.679688 165.902344 C 72.003906 165.691406 73.039062 165.636719 73.820312 165.609375 C 75.390625 165.554688 75.984375 165.585938 75.996094 165.683594 C 75.996094 165.777344 75.398438 165.914062 73.859375 166.089844 C 73.082031 166.179688 72.066406 166.285156 70.792969 166.519531 C 69.746094 166.71875 68.507812 167.058594 67.242188 167.800781 C 68.902344 168.664062 70.605469 169.527344 72.421875 169.855469 C 74.960938 170.316406 77.734375 170.105469 80.316406 170.1875 C 85.1875 170.34375 89.988281 169.5625 94.542969 167.914062 C 93.179688 167.359375 91.992188 166.921875 90.957031 166.605469 C 89.589844 166.1875 88.503906 165.921875 87.667969 165.761719 C 86.832031 165.582031 86.246094 165.496094 85.875 165.417969 C 85.503906 165.339844 85.34375 165.28125 85.34375 165.230469 C 85.347656 165.183594 85.515625 165.15625 85.898438 165.15625 C 86.28125 165.152344 86.882812 165.164062 87.742188 165.285156 C 88.609375 165.386719 89.726562 165.613281 91.136719 166.003906 C 92.144531 166.289062 93.289062 166.683594 94.578125 167.195312 C 94.558594 154.667969 94.574219 146.382812 94.625 141.222656 C 94.648438 138.566406 94.679688 136.777344 94.71875 135.605469 C 94.757812 134.441406 94.800781 133.9375 94.847656 133.9375 C 94.894531 133.9375 94.941406 134.421875 94.984375 135.589844 C 95.027344 136.757812 95.070312 138.566406 95.105469 141.222656 C 95.175781 146.421875 95.230469 154.785156 95.261719 167.472656 C 95.335938 167.5 95.402344 167.53125 95.476562 167.558594 C 95.675781 167.480469 95.871094 167.402344 96.070312 167.320312 C 96.039062 166.296875 95.988281 165.28125 96.003906 164.257812 C 96.070312 160.90625 95.59375 157.597656 96.121094 154.28125 C 96.675781 150.824219 96.308594 147.257812 96.613281 143.75 Z M 97.753906 150.363281 C 97.867188 152.34375 97.386719 154.140625 97.222656 156.09375 C 97.078125 157.753906 97.375 159.347656 97.394531 161.007812 C 97.40625 162.632812 97.3125 164.261719 97.359375 165.882812 C 97.386719 166.953125 97.617188 168.148438 97.394531 169.207031 C 97.03125 170.898438 95.582031 171.335938 94.160156 172.003906 C 92.054688 172.988281 89.847656 174.402344 87.457031 174.5 C 81.734375 174.742188 75.359375 175.484375 69.78125 173.800781 C 68.179688 173.3125 65.914062 172.566406 65.121094 170.917969 C 64.007812 168.589844 63.921875 165.851562 64.039062 163.324219 C 64.375 156.214844 64.125 149.101562 63.636719 142 C 63.304688 137.078125 62.261719 131.195312 66.703125 127.78125 C 67.664062 127.042969 68.695312 126.253906 69.820312 125.800781 C 71.328125 125.1875 73.0625 124.777344 73.542969 122.988281 C 74.148438 120.726562 73.847656 118.410156 73.808594 116.101562 C 73.394531 115.871094 73.007812 115.597656 72.648438 115.261719 C 70.617188 113.363281 72.738281 111.5 74.6875 111.183594 C 74.285156 109.441406 73.992188 107.339844 75.527344 106.605469 C 76.933594 105.9375 78.652344 105.980469 80.1875 105.929688 C 82.246094 105.875 87.394531 105.746094 86.453125 109.15625 C 86.402344 109.34375 86.300781 109.46875 86.171875 109.542969 C 86.15625 110.082031 86.191406 110.617188 86.234375 111.152344 C 86.324219 111.25 86.382812 111.382812 86.402344 111.542969 C 86.402344 111.570312 86.402344 111.59375 86.410156 111.625 C 88.285156 111.730469 90.21875 113.550781 88.234375 115.246094 C 87.773438 115.636719 87.261719 115.953125 86.726562 116.210938 C 86.753906 117.984375 86.140625 119.945312 86.613281 121.632812 C 87.058594 123.242188 89.492188 123.894531 90.765625 124.738281 C 93.394531 126.492188 95.65625 128.414062 96.96875 131.363281 C 99.621094 137.328125 97.402344 144.136719 97.753906 150.363281 " fill-opacity="1" fill-rule="nonzero"/></g><g clip-path="url(#1da6b72827)"><path fill="#26a69a" d="M 67.976562 140.867188 L 67.976562 154.949219 C 67.976562 155.453125 68.386719 155.863281 68.890625 155.863281 L 92.691406 155.863281 C 93.195312 155.863281 93.605469 155.453125 93.605469 154.949219 L 93.605469 140.867188 L 81.269531 148.40625 C 80.976562 148.585938 80.605469 148.585938 80.3125 148.40625 Z M 80.789062 146.550781 L 69.066406 139.386719 L 92.515625 139.386719 Z M 80.789062 146.550781 " fill-opacity="1" fill-rule="evenodd"/></g><path stroke-linecap="butt" transform="matrix(0.590869, 0, 0, 0.590869, 71.541072, 132.859606)" fill="none" stroke-linejoin="miter" d="M 29.488395 11.615184 C 29.673504 11.978791 29.785891 12.302731 29.818946 12.593616 C 29.865224 12.877891 29.885057 13.300996 29.885057 13.849712 L 29.885057 33.834849 C 29.885057 35.487606 29.428896 36.459427 28.509963 36.743702 C 28.053802 36.889144 27.478643 36.961866 26.777874 36.961866 C 26.090327 36.961866 25.535 36.908977 25.125117 36.789979 C 24.715233 36.664369 24.404515 36.525538 24.186351 36.360262 C 23.974798 36.188375 23.809522 35.943767 23.683913 35.626438 C 23.571525 35.223165 23.512026 34.601729 23.512026 33.755517 L 23.512026 21.697002 C 22.910422 22.444048 22.031156 23.627422 20.874226 25.247124 C 19.723907 26.866826 18.996694 27.878313 18.685975 28.288197 C 18.375257 28.69147 18.157093 28.975744 18.038095 29.134408 C 17.919096 29.293073 17.628211 29.511237 17.158828 29.782289 C 16.689445 30.059952 16.180396 30.198784 15.644903 30.198784 C 15.102798 30.198784 14.613582 30.073174 14.170643 29.821955 C 13.721093 29.564125 13.403764 29.319517 13.212044 29.08152 L 12.921159 28.684859 C 12.445165 28.083255 11.499788 26.807327 10.078417 24.850462 C 8.663657 22.893598 7.896778 21.842445 7.777779 21.697002 L 7.777779 33.834849 C 7.777779 34.383565 7.757946 34.800059 7.71828 35.077723 C 7.678614 35.348775 7.572837 35.652882 7.381118 35.990044 C 7.017511 36.637925 6.078745 36.961866 4.571431 36.961866 C 3.103783 36.961866 2.191461 36.637925 1.834465 35.990044 C 1.642745 35.652882 1.530358 35.342164 1.497303 35.057889 C 1.457637 34.773615 1.444415 34.337287 1.444415 33.755517 L 1.444415 13.77699 C 1.444415 13.228275 1.457637 12.818391 1.497303 12.540728 C 1.530358 12.263065 1.642745 11.945736 1.834465 11.582129 C 2.191461 10.960693 3.130227 10.649974 4.637541 10.649974 C 5.292033 10.649974 5.847359 10.729307 6.316742 10.887971 C 6.786125 11.040025 7.090232 11.19869 7.235675 11.370576 L 7.453839 11.582129 L 15.625069 22.311828 C 19.704074 16.910618 22.427817 13.347274 23.789689 11.615184 C 24.199573 10.973915 25.171394 10.649974 26.69193 10.649974 C 28.219078 10.649974 29.144622 10.973915 29.488395 11.615184 Z M 29.488395 11.615184 " stroke="#808080" stroke-width="1.125003" stroke-opacity="1" stroke-miterlimit="4"/><g fill="#ffffff" fill-opacity="1"><g transform="translate(71.541072, 154.721751)"><g><path d="M 17.421875 -14.984375 C 17.535156 -14.773438 17.601562 -14.582031 17.625 -14.40625 C 17.644531 -14.238281 17.65625 -13.992188 17.65625 -13.671875 L 17.65625 -1.875 C 17.65625 -0.894531 17.382812 -0.320312 16.84375 -0.15625 C 16.570312 -0.0625 16.226562 -0.015625 15.8125 -0.015625 C 15.40625 -0.015625 15.082031 -0.0507812 14.84375 -0.125 C 14.601562 -0.195312 14.414062 -0.28125 14.28125 -0.375 C 14.15625 -0.476562 14.0625 -0.625 14 -0.8125 C 13.925781 -1.050781 13.890625 -1.414062 13.890625 -1.90625 L 13.890625 -9.03125 C 13.535156 -8.59375 13.015625 -7.894531 12.328125 -6.9375 C 11.648438 -5.976562 11.21875 -5.378906 11.03125 -5.140625 C 10.851562 -4.898438 10.726562 -4.734375 10.65625 -4.640625 C 10.582031 -4.554688 10.40625 -4.429688 10.125 -4.265625 C 9.851562 -4.097656 9.554688 -4.015625 9.234375 -4.015625 C 8.921875 -4.015625 8.628906 -4.085938 8.359375 -4.234375 C 8.097656 -4.390625 7.910156 -4.535156 7.796875 -4.671875 L 7.640625 -4.90625 C 7.347656 -5.257812 6.785156 -6.015625 5.953125 -7.171875 C 5.117188 -8.328125 4.664062 -8.945312 4.59375 -9.03125 L 4.59375 -1.875 C 4.59375 -1.539062 4.582031 -1.289062 4.5625 -1.125 C 4.539062 -0.96875 4.472656 -0.789062 4.359375 -0.59375 C 4.148438 -0.207031 3.597656 -0.015625 2.703125 -0.015625 C 1.835938 -0.015625 1.296875 -0.207031 1.078125 -0.59375 C 0.972656 -0.789062 0.90625 -0.972656 0.875 -1.140625 C 0.851562 -1.316406 0.84375 -1.570312 0.84375 -1.90625 L 0.84375 -13.71875 C 0.84375 -14.039062 0.851562 -14.28125 0.875 -14.4375 C 0.90625 -14.601562 0.972656 -14.796875 1.078125 -15.015625 C 1.296875 -15.378906 1.851562 -15.5625 2.75 -15.5625 C 3.125 -15.5625 3.445312 -15.515625 3.71875 -15.421875 C 4 -15.335938 4.1875 -15.242188 4.28125 -15.140625 L 4.40625 -15.015625 L 9.234375 -8.671875 C 11.640625 -11.867188 13.25 -13.972656 14.0625 -14.984375 C 14.300781 -15.367188 14.867188 -15.5625 15.765625 -15.5625 C 16.671875 -15.5625 17.222656 -15.367188 17.421875 -14.984375 Z M 17.421875 -14.984375 "/></g></g></g><path stroke-linecap="butt" transform="matrix(0.75, 0, 0, 0.75, 99.714044, 127.725916)" fill="none" stroke-linejoin="miter" d="M 19.730235 25.250864 C 19.730235 26.724823 19.365652 27.818573 18.631276 28.526906 C 17.90211 29.230031 17.08961 29.584198 16.198985 29.584198 L 7.662526 29.584198 C 7.662526 30.256073 8.058359 30.823781 8.850026 31.276906 C 9.646901 31.73524 10.443776 31.964406 11.230234 31.964406 C 12.626068 31.964406 13.719818 31.818573 14.511485 31.526906 L 14.907318 31.386281 C 15.480235 31.120656 15.959401 30.990448 16.350026 30.990448 C 17.115651 30.990448 17.771901 31.526906 18.323985 32.605031 C 18.636485 33.256073 18.792735 33.808156 18.792735 34.26649 C 18.792735 36.401907 16.235443 37.464407 11.126068 37.464407 C 9.350026 37.464407 7.771901 37.162323 6.391692 36.552948 C 5.011484 35.938365 3.938567 35.125865 3.162525 34.115448 C 1.652109 32.177948 0.8969 30.006073 0.8969 27.605031 C 0.8969 24.578989 1.876067 22.162322 3.834401 20.355031 C 5.787526 18.537322 8.230234 17.631072 11.162526 17.631072 C 14.49586 17.631072 16.943776 18.808155 18.501068 21.162322 C 19.318777 22.412322 19.730235 23.771697 19.730235 25.250864 Z M 12.131276 26.302948 C 13.042734 26.302948 13.501068 25.917531 13.501068 25.151906 C 13.501068 24.599822 13.287526 24.157114 12.865651 23.823781 C 12.448984 23.490447 11.850026 23.323781 11.063568 23.323781 C 10.287526 23.323781 9.511484 23.641489 8.745859 24.282114 C 7.975026 24.917531 7.594817 25.589406 7.594817 26.302948 Z M 22.209402 35.302948 C 21.751068 35.01649 21.521902 34.563365 21.521902 33.943573 C 21.521902 33.313365 21.980235 32.365448 22.896902 31.094615 C 23.157318 30.688365 23.584402 30.48524 24.167735 30.48524 C 24.761485 30.48524 25.563569 30.782115 26.568777 31.365448 C 27.579194 31.95399 28.490652 32.245656 29.303152 32.245656 C 30.766694 32.245656 31.501069 31.959198 31.501069 31.386281 C 31.501069 30.927948 30.698986 30.589406 29.089611 30.370656 C 27.579194 30.157114 26.079194 29.594614 24.58961 28.683156 C 23.896902 28.250864 23.318777 27.573781 22.860443 26.657114 C 22.40211 25.730031 22.172943 24.631072 22.172943 23.360239 C 22.172943 19.563364 24.77711 17.662322 29.990652 17.662322 C 31.693777 17.662322 33.443777 18.07378 35.245861 18.896697 C 36.084403 19.276905 36.501069 19.756072 36.501069 20.334197 C 36.501069 20.912322 36.235444 21.620656 35.709403 22.464406 C 35.183361 23.302947 34.641694 23.719614 34.094819 23.719614 C 33.803152 23.719614 33.271902 23.542531 32.490652 23.183156 C 31.714611 22.818572 30.865652 22.636281 29.954194 22.636281 C 28.537527 22.636281 27.823985 22.901906 27.823985 23.427947 C 27.823985 24.151906 28.641694 24.620656 30.277111 24.834197 C 31.860444 25.000864 33.396902 25.453989 34.881278 26.198781 C 35.579194 26.537323 36.162528 27.120656 36.631278 27.948781 C 37.100028 28.771698 37.334403 29.808156 37.334403 31.058156 C 37.334403 32.308156 37.100028 33.370656 36.631278 34.250865 C 36.162528 35.120656 35.506278 35.776907 34.662528 36.209198 C 33.131277 36.95399 31.204194 37.323782 28.891694 37.323782 C 26.573985 37.323782 24.350027 36.651907 22.209402 35.302948 Z M 39.81357 35.302948 C 39.355236 35.01649 39.126069 34.563365 39.126069 33.943573 C 39.126069 33.313365 39.584403 32.365448 40.50107 31.094615 C 40.761486 30.688365 41.18857 30.48524 41.771903 30.48524 C 42.365653 30.48524 43.167736 30.782115 44.172945 31.365448 C 45.183362 31.95399 46.09482 32.245656 46.90732 32.245656 C 48.370862 32.245656 49.105237 31.959198 49.105237 31.386281 C 49.105237 30.927948 48.303153 30.589406 46.693778 30.370656 C 45.183362 30.157114 43.683361 29.594614 42.193778 28.683156 C 41.50107 28.250864 40.922945 27.573781 40.464611 26.657114 C 40.006278 25.730031 39.777111 24.631072 39.777111 23.360239 C 39.777111 19.563364 42.381278 17.662322 47.59482 17.662322 C 49.297945 17.662322 51.047945 18.07378 52.850029 18.896697 C 53.68857 19.276905 54.105237 19.756072 54.105237 20.334197 C 54.105237 20.912322 53.839612 21.620656 53.31357 22.464406 C 52.787529 23.302947 52.245862 23.719614 51.698987 23.719614 C 51.40732 23.719614 50.87607 23.542531 50.09482 23.183156 C 49.318779 22.818572 48.46982 22.636281 47.558362 22.636281 C 46.141695 22.636281 45.428153 22.901906 45.428153 23.427947 C 45.428153 24.151906 46.245862 24.620656 47.881278 24.834197 C 49.464612 25.000864 51.00107 25.453989 52.485445 26.198781 C 53.183362 26.537323 53.766695 27.120656 54.235445 27.948781 C 54.704196 28.771698 54.938571 29.808156 54.938571 31.058156 C 54.938571 32.308156 54.704196 33.370656 54.235445 34.250865 C 53.766695 35.120656 53.110445 35.776907 52.266695 36.209198 C 50.735445 36.95399 48.808362 37.323782 46.495862 37.323782 C 44.178153 37.323782 41.954195 36.651907 39.81357 35.302948 Z M 69.589613 20.047739 C 69.730238 18.69878 70.678155 18.026905 72.428155 18.026905 C 73.365655 18.026905 74.063572 18.099822 74.521905 18.245655 C 74.980239 18.391489 75.292739 18.641489 75.469822 19.000864 C 75.652114 19.35503 75.761489 19.677947 75.797947 19.959197 C 75.829197 20.235239 75.85003 20.646697 75.85003 21.198781 L 75.85003 33.792531 C 75.85003 34.349823 75.829197 34.76649 75.797947 35.042531 C 75.761489 35.313365 75.657322 35.631073 75.490655 35.990448 C 75.152114 36.615448 74.334405 36.927948 73.027113 36.927948 C 71.719822 36.927948 70.844822 36.76649 70.396905 36.448782 C 69.954197 36.120657 69.69378 35.64149 69.626072 35.021698 C 68.735446 36.292532 67.251071 36.927948 65.178155 36.927948 C 63.105238 36.927948 61.178154 35.98524 59.396904 34.089406 C 57.620862 32.193573 56.730237 29.990448 56.730237 27.480031 C 56.730237 24.974822 57.626071 22.776906 59.412529 20.896697 C 61.204196 19.01128 63.167738 18.068572 65.303155 18.068572 C 66.120863 18.068572 66.865655 18.214405 67.532321 18.500864 C 68.209405 18.787322 68.678155 19.058155 68.938571 19.308155 C 69.204196 19.558155 69.422946 19.808155 69.589613 20.047739 Z M 63.032321 27.532114 C 63.032321 28.323781 63.344821 29.042531 63.964613 29.677948 C 64.594821 30.313365 65.35003 30.625865 66.235446 30.625865 C 67.126071 30.625865 67.860446 30.308156 68.448988 29.662323 C 69.03753 29.011281 69.334405 28.297739 69.334405 27.516489 C 69.334405 26.735239 69.053155 26.011281 68.485446 25.339406 C 67.922946 24.662322 67.16253 24.323781 66.214613 24.323781 C 65.271905 24.323781 64.506279 24.662322 63.912529 25.339406 C 63.329196 26.011281 63.032321 26.745656 63.032321 27.532114 Z M 90.756281 34.625865 C 89.844823 35.823782 88.391698 36.417532 86.396906 36.417532 C 84.407322 36.417532 82.537531 35.500865 80.797947 33.667531 C 79.058364 31.834198 78.188572 29.693573 78.188572 27.245656 C 78.188572 24.792531 79.063572 22.646697 80.818781 20.802947 C 82.568781 18.94878 84.490656 18.026905 86.584406 18.026905 C 87.396906 18.026905 88.136489 18.177947 88.803156 18.48003 C 89.480239 18.782114 89.943781 19.058155 90.193781 19.308155 C 90.443781 19.558155 90.646906 19.79253 90.79274 20.01128 C 90.860448 19.339405 91.110448 18.828989 91.532323 18.48003 C 91.954198 18.131072 92.631281 17.953989 93.558365 17.953989 C 94.495865 17.953989 95.183365 18.026905 95.615657 18.172739 C 96.053157 18.313364 96.35524 18.558155 96.532323 18.912322 C 96.714615 19.256072 96.818782 19.563364 96.85524 19.82378 C 96.891698 20.089406 96.907323 20.495656 96.907323 21.047739 L 96.907323 35.95399 C 96.907323 38.714407 95.94899 40.938365 94.027115 42.636282 C 92.110448 44.32899 89.94899 45.17274 87.547948 45.17274 C 85.725031 45.17274 83.985447 44.730032 82.329197 43.839407 C 80.678156 42.95399 79.850031 42.151907 79.850031 41.427949 C 79.850031 40.490449 80.209406 39.662323 80.928156 38.943573 C 81.386489 38.438365 81.740656 38.089407 81.995864 37.896698 C 82.245864 37.709198 82.537531 37.615448 82.870864 37.615448 C 83.209406 37.615448 83.553156 37.761282 83.917739 38.04774 C 85.068781 38.933157 86.313573 39.370657 87.662531 39.370657 C 88.568781 39.370657 89.313573 39.011282 89.886489 38.292532 C 90.464615 37.57899 90.756281 36.714407 90.756281 35.709198 Z M 84.350031 27.261281 C 84.350031 28.042531 84.652114 28.745656 85.261489 29.370656 C 85.881281 29.990448 86.620864 30.302948 87.495864 30.302948 C 88.376073 30.302948 89.100031 29.985239 89.678156 29.355031 C 90.251073 28.714406 90.537531 28.016489 90.537531 27.261281 C 90.537531 26.506073 90.26149 25.797739 89.709406 25.141489 C 89.162531 24.480031 88.417739 24.151906 87.480239 24.151906 C 86.542739 24.151906 85.787531 24.474822 85.209406 25.125864 C 84.636489 25.771698 84.350031 26.480031 84.350031 27.261281 Z M 118.084408 25.250864 C 118.084408 26.724823 117.719825 27.818573 116.98545 28.526906 C 116.251075 29.230031 115.438575 29.584198 114.547949 29.584198 L 106.016699 29.584198 C 106.016699 30.256073 106.412532 30.823781 107.204199 31.276906 C 108.001074 31.73524 108.792741 31.964406 109.584407 31.964406 C 110.980241 31.964406 112.073991 31.818573 112.860449 31.526906 L 113.256283 31.386281 C 113.834408 31.120656 114.313574 30.990448 114.698991 30.990448 C 115.469825 30.990448 116.126075 31.526906 116.678158 32.605031 C 116.98545 33.256073 117.1417 33.808156 117.1417 34.26649 C 117.1417 36.401907 114.589616 37.464407 109.480241 37.464407 C 107.704199 37.464407 106.126074 37.162323 104.740657 36.552948 C 103.365657 35.938365 102.287532 35.125865 101.516699 34.115448 C 100.006282 32.177948 99.251073 30.006073 99.251073 27.605031 C 99.251073 24.578989 100.225032 22.162322 102.183365 20.355031 C 104.141699 18.537322 106.584407 17.631072 109.516699 17.631072 C 112.850033 17.631072 115.292741 18.808155 116.855241 21.162322 C 117.67295 22.412322 118.084408 23.771697 118.084408 25.250864 Z M 110.480241 26.302948 C 111.396908 26.302948 111.850033 25.917531 111.850033 25.151906 C 111.850033 24.599822 111.641699 24.157114 111.219824 23.823781 C 110.803158 23.490447 110.204199 23.323781 109.417741 23.323781 C 108.636491 23.323781 107.865657 23.641489 107.094824 24.282114 C 106.329199 24.917531 105.943782 25.589406 105.943782 26.302948 Z M 110.480241 26.302948 " stroke="#00534b" stroke-width="0.765002" stroke-opacity="1" stroke-miterlimit="4"/><g fill="#26a69a" fill-opacity="1"><g transform="translate(99.714044, 155.475914)"><g><path d="M 14.796875 -8.8125 C 14.796875 -7.707031 14.519531 -6.890625 13.96875 -6.359375 C 13.425781 -5.828125 12.820312 -5.5625 12.15625 -5.5625 L 5.75 -5.5625 C 5.75 -5.0625 6.046875 -4.640625 6.640625 -4.296875 C 7.234375 -3.953125 7.828125 -3.78125 8.421875 -3.78125 C 9.460938 -3.78125 10.28125 -3.890625 10.875 -4.109375 L 11.171875 -4.21875 C 11.609375 -4.414062 11.972656 -4.515625 12.265625 -4.515625 C 12.835938 -4.515625 13.332031 -4.109375 13.75 -3.296875 C 13.976562 -2.804688 14.09375 -2.390625 14.09375 -2.046875 C 14.09375 -0.453125 12.175781 0.34375 8.34375 0.34375 C 7.007812 0.34375 5.820312 0.113281 4.78125 -0.34375 C 3.75 -0.800781 2.945312 -1.40625 2.375 -2.15625 C 1.238281 -3.613281 0.671875 -5.242188 0.671875 -7.046875 C 0.671875 -9.316406 1.40625 -11.128906 2.875 -12.484375 C 4.34375 -13.847656 6.175781 -14.53125 8.375 -14.53125 C 10.875 -14.53125 12.707031 -13.644531 13.875 -11.875 C 14.488281 -10.9375 14.796875 -9.914062 14.796875 -8.8125 Z M 9.09375 -8.015625 C 9.78125 -8.015625 10.125 -8.304688 10.125 -8.890625 C 10.125 -9.296875 9.96875 -9.625 9.65625 -9.875 C 9.34375 -10.132812 8.890625 -10.265625 8.296875 -10.265625 C 7.710938 -10.265625 7.132812 -10.023438 6.5625 -9.546875 C 5.988281 -9.066406 5.703125 -8.554688 5.703125 -8.015625 Z M 9.09375 -8.015625 "/></g></g></g><g fill="#26a69a" fill-opacity="1"><g transform="translate(115.185047, 155.475914)"><g><path d="M 1.1875 -1.265625 C 0.84375 -1.484375 0.671875 -1.828125 0.671875 -2.296875 C 0.671875 -2.765625 1.015625 -3.472656 1.703125 -4.421875 C 1.898438 -4.734375 2.21875 -4.890625 2.65625 -4.890625 C 3.101562 -4.890625 3.703125 -4.664062 4.453125 -4.21875 C 5.210938 -3.78125 5.894531 -3.5625 6.5 -3.5625 C 7.601562 -3.5625 8.15625 -3.78125 8.15625 -4.21875 C 8.15625 -4.550781 7.550781 -4.800781 6.34375 -4.96875 C 5.207031 -5.132812 4.082031 -5.554688 2.96875 -6.234375 C 2.445312 -6.554688 2.015625 -7.0625 1.671875 -7.75 C 1.328125 -8.445312 1.15625 -9.273438 1.15625 -10.234375 C 1.15625 -13.078125 3.109375 -14.5 7.015625 -14.5 C 8.296875 -14.5 9.613281 -14.191406 10.96875 -13.578125 C 11.59375 -13.296875 11.90625 -12.9375 11.90625 -12.5 C 11.90625 -12.070312 11.707031 -11.539062 11.3125 -10.90625 C 10.914062 -10.28125 10.507812 -9.96875 10.09375 -9.96875 C 9.882812 -9.96875 9.484375 -10.097656 8.890625 -10.359375 C 8.304688 -10.628906 7.675781 -10.765625 7 -10.765625 C 5.9375 -10.765625 5.40625 -10.566406 5.40625 -10.171875 C 5.40625 -9.640625 6.015625 -9.289062 7.234375 -9.125 C 8.421875 -9 9.570312 -8.65625 10.6875 -8.09375 C 11.207031 -7.84375 11.644531 -7.40625 12 -6.78125 C 12.351562 -6.164062 12.53125 -5.390625 12.53125 -4.453125 C 12.53125 -3.515625 12.351562 -2.71875 12 -2.0625 C 11.644531 -1.40625 11.15625 -0.914062 10.53125 -0.59375 C 9.375 -0.03125 7.925781 0.25 6.1875 0.25 C 4.457031 0.25 2.789062 -0.253906 1.1875 -1.265625 Z M 1.1875 -1.265625 "/></g></g></g><g fill="#26a69a" fill-opacity="1"><g transform="translate(128.388049, 155.475914)"><g><path d="M 1.1875 -1.265625 C 0.84375 -1.484375 0.671875 -1.828125 0.671875 -2.296875 C 0.671875 -2.765625 1.015625 -3.472656 1.703125 -4.421875 C 1.898438 -4.734375 2.21875 -4.890625 2.65625 -4.890625 C 3.101562 -4.890625 3.703125 -4.664062 4.453125 -4.21875 C 5.210938 -3.78125 5.894531 -3.5625 6.5 -3.5625 C 7.601562 -3.5625 8.15625 -3.78125 8.15625 -4.21875 C 8.15625 -4.550781 7.550781 -4.800781 6.34375 -4.96875 C 5.207031 -5.132812 4.082031 -5.554688 2.96875 -6.234375 C 2.445312 -6.554688 2.015625 -7.0625 1.671875 -7.75 C 1.328125 -8.445312 1.15625 -9.273438 1.15625 -10.234375 C 1.15625 -13.078125 3.109375 -14.5 7.015625 -14.5 C 8.296875 -14.5 9.613281 -14.191406 10.96875 -13.578125 C 11.59375 -13.296875 11.90625 -12.9375 11.90625 -12.5 C 11.90625 -12.070312 11.707031 -11.539062 11.3125 -10.90625 C 10.914062 -10.28125 10.507812 -9.96875 10.09375 -9.96875 C 9.882812 -9.96875 9.484375 -10.097656 8.890625 -10.359375 C 8.304688 -10.628906 7.675781 -10.765625 7 -10.765625 C 5.9375 -10.765625 5.40625 -10.566406 5.40625 -10.171875 C 5.40625 -9.640625 6.015625 -9.289062 7.234375 -9.125 C 8.421875 -9 9.570312 -8.65625 10.6875 -8.09375 C 11.207031 -7.84375 11.644531 -7.40625 12 -6.78125 C 12.351562 -6.164062 12.53125 -5.390625 12.53125 -4.453125 C 12.53125 -3.515625 12.351562 -2.71875 12 -2.0625 C 11.644531 -1.40625 11.15625 -0.914062 10.53125 -0.59375 C 9.375 -0.03125 7.925781 0.25 6.1875 0.25 C 4.457031 0.25 2.789062 -0.253906 1.1875 -1.265625 Z M 1.1875 -1.265625 "/></g></g></g><g fill="#26a69a" fill-opacity="1"><g transform="translate(141.591051, 155.475914)"><g><path d="M 10.3125 -12.71875 C 10.414062 -13.726562 11.128906 -14.234375 12.453125 -14.234375 C 13.148438 -14.234375 13.671875 -14.175781 14.015625 -14.0625 C 14.359375 -13.957031 14.597656 -13.769531 14.734375 -13.5 C 14.867188 -13.226562 14.945312 -12.988281 14.96875 -12.78125 C 15 -12.570312 15.015625 -12.265625 15.015625 -11.859375 L 15.015625 -2.40625 C 15.015625 -1.988281 15 -1.675781 14.96875 -1.46875 C 14.945312 -1.257812 14.867188 -1.019531 14.734375 -0.75 C 14.484375 -0.28125 13.867188 -0.046875 12.890625 -0.046875 C 11.910156 -0.046875 11.253906 -0.164062 10.921875 -0.40625 C 10.585938 -0.65625 10.394531 -1.015625 10.34375 -1.484375 C 9.675781 -0.523438 8.5625 -0.046875 7 -0.046875 C 5.445312 -0.046875 4.003906 -0.753906 2.671875 -2.171875 C 1.335938 -3.597656 0.671875 -5.253906 0.671875 -7.140625 C 0.671875 -9.023438 1.34375 -10.671875 2.6875 -12.078125 C 4.03125 -13.492188 5.5 -14.203125 7.09375 -14.203125 C 7.707031 -14.203125 8.265625 -14.09375 8.765625 -13.875 C 9.273438 -13.65625 9.628906 -13.453125 9.828125 -13.265625 C 10.023438 -13.078125 10.1875 -12.894531 10.3125 -12.71875 Z M 5.40625 -7.09375 C 5.40625 -6.5 5.632812 -5.960938 6.09375 -5.484375 C 6.5625 -5.015625 7.128906 -4.78125 7.796875 -4.78125 C 8.460938 -4.78125 9.015625 -5.019531 9.453125 -5.5 C 9.898438 -5.988281 10.125 -6.523438 10.125 -7.109375 C 10.125 -7.691406 9.910156 -8.234375 9.484375 -8.734375 C 9.066406 -9.242188 8.5 -9.5 7.78125 -9.5 C 7.070312 -9.5 6.5 -9.242188 6.0625 -8.734375 C 5.625 -8.234375 5.40625 -7.6875 5.40625 -7.09375 Z M 5.40625 -7.09375 "/></g></g></g><g fill="#26a69a" fill-opacity="1"><g transform="translate(157.683057, 155.475914)"><g><path d="M 10.09375 -1.78125 C 9.414062 -0.882812 8.328125 -0.4375 6.828125 -0.4375 C 5.335938 -0.4375 3.9375 -1.125 2.625 -2.5 C 1.320312 -3.875 0.671875 -5.476562 0.671875 -7.3125 C 0.671875 -9.15625 1.328125 -10.769531 2.640625 -12.15625 C 3.953125 -13.539062 5.394531 -14.234375 6.96875 -14.234375 C 7.582031 -14.234375 8.140625 -14.117188 8.640625 -13.890625 C 9.140625 -13.660156 9.484375 -13.453125 9.671875 -13.265625 C 9.867188 -13.078125 10.019531 -12.90625 10.125 -12.75 C 10.175781 -13.25 10.359375 -13.628906 10.671875 -13.890625 C 10.992188 -14.148438 11.503906 -14.28125 12.203125 -14.28125 C 12.898438 -14.28125 13.410156 -14.222656 13.734375 -14.109375 C 14.066406 -14.003906 14.300781 -13.820312 14.4375 -13.5625 C 14.570312 -13.300781 14.648438 -13.070312 14.671875 -12.875 C 14.703125 -12.675781 14.71875 -12.375 14.71875 -11.96875 L 14.71875 -0.78125 C 14.71875 1.289062 13.992188 2.957031 12.546875 4.21875 C 11.109375 5.488281 9.488281 6.125 7.6875 6.125 C 6.320312 6.125 5.019531 5.789062 3.78125 5.125 C 2.539062 4.457031 1.921875 3.859375 1.921875 3.328125 C 1.921875 2.617188 2.191406 1.992188 2.734375 1.453125 C 3.066406 1.078125 3.328125 0.816406 3.515625 0.671875 C 3.710938 0.523438 3.9375 0.453125 4.1875 0.453125 C 4.4375 0.453125 4.695312 0.5625 4.96875 0.78125 C 5.832031 1.445312 6.769531 1.78125 7.78125 1.78125 C 8.457031 1.78125 9.007812 1.507812 9.4375 0.96875 C 9.875 0.425781 10.09375 -0.21875 10.09375 -0.96875 Z M 5.296875 -7.296875 C 5.296875 -6.710938 5.523438 -6.1875 5.984375 -5.71875 C 6.441406 -5.25 7 -5.015625 7.65625 -5.015625 C 8.3125 -5.015625 8.851562 -5.253906 9.28125 -5.734375 C 9.71875 -6.210938 9.9375 -6.734375 9.9375 -7.296875 C 9.9375 -7.867188 9.726562 -8.398438 9.3125 -8.890625 C 8.894531 -9.390625 8.335938 -9.640625 7.640625 -9.640625 C 6.941406 -9.640625 6.375 -9.394531 5.9375 -8.90625 C 5.507812 -8.425781 5.296875 -7.890625 5.296875 -7.296875 Z M 5.296875 -7.296875 "/></g></g></g><g fill="#26a69a" fill-opacity="1"><g transform="translate(173.478066, 155.475914)"><g><path d="M 14.796875 -8.8125 C 14.796875 -7.707031 14.519531 -6.890625 13.96875 -6.359375 C 13.425781 -5.828125 12.820312 -5.5625 12.15625 -5.5625 L 5.75 -5.5625 C 5.75 -5.0625 6.046875 -4.640625 6.640625 -4.296875 C 7.234375 -3.953125 7.828125 -3.78125 8.421875 -3.78125 C 9.460938 -3.78125 10.28125 -3.890625 10.875 -4.109375 L 11.171875 -4.21875 C 11.609375 -4.414062 11.972656 -4.515625 12.265625 -4.515625 C 12.835938 -4.515625 13.332031 -4.109375 13.75 -3.296875 C 13.976562 -2.804688 14.09375 -2.390625 14.09375 -2.046875 C 14.09375 -0.453125 12.175781 0.34375 8.34375 0.34375 C 7.007812 0.34375 5.820312 0.113281 4.78125 -0.34375 C 3.75 -0.800781 2.945312 -1.40625 2.375 -2.15625 C 1.238281 -3.613281 0.671875 -5.242188 0.671875 -7.046875 C 0.671875 -9.316406 1.40625 -11.128906 2.875 -12.484375 C 4.34375 -13.847656 6.175781 -14.53125 8.375 -14.53125 C 10.875 -14.53125 12.707031 -13.644531 13.875 -11.875 C 14.488281 -10.9375 14.796875 -9.914062 14.796875 -8.8125 Z M 9.09375 -8.015625 C 9.78125 -8.015625 10.125 -8.304688 10.125 -8.890625 C 10.125 -9.296875 9.96875 -9.625 9.65625 -9.875 C 9.34375 -10.132812 8.890625 -10.265625 8.296875 -10.265625 C 7.710938 -10.265625 7.132812 -10.023438 6.5625 -9.546875 C 5.988281 -9.066406 5.703125 -8.554688 5.703125 -8.015625 Z M 9.09375 -8.015625 "/></g></g></g><g fill="#26a69a" fill-opacity="1"><g transform="translate(100.477643, 172.986741)"><g><path d="M 0.578125 -0.53125 C 0.492188 -0.519531 0.40625 -0.570312 0.3125 -0.6875 C 0.21875 -0.800781 0.132812 -1.003906 0.0625 -1.296875 C -0.0078125 -1.585938 -0.0351562 -1.988281 -0.015625 -2.5 C -0.015625 -2.550781 -0.015625 -2.613281 -0.015625 -2.6875 C -0.015625 -2.882812 -0.00390625 -3.113281 0.015625 -3.375 C 0.0351562 -3.644531 0.0703125 -3.882812 0.125 -4.09375 C 0.1875 -4.3125 0.28125 -4.441406 0.40625 -4.484375 C 0.769531 -4.578125 0.96875 -4.445312 1 -4.09375 C 1 -3.976562 0.992188 -3.863281 0.984375 -3.75 C 0.972656 -3.707031 0.96875 -3.65625 0.96875 -3.59375 C 0.96875 -3.425781 0.960938 -3.265625 0.953125 -3.109375 C 0.953125 -2.972656 0.945312 -2.835938 0.9375 -2.703125 C 0.9375 -2.617188 0.9375 -2.492188 0.9375 -2.328125 C 0.945312 -2.097656 0.945312 -1.84375 0.9375 -1.5625 C 0.9375 -1.289062 0.90625 -1.050781 0.84375 -0.84375 C 0.789062 -0.644531 0.703125 -0.539062 0.578125 -0.53125 Z M 0.921875 -5.703125 C 0.878906 -5.660156 0.816406 -5.632812 0.734375 -5.625 C 0.660156 -5.613281 0.601562 -5.617188 0.5625 -5.640625 C 0.519531 -5.679688 0.488281 -5.726562 0.46875 -5.78125 C 0.457031 -5.832031 0.453125 -5.894531 0.453125 -5.96875 C 0.460938 -5.988281 0.46875 -6.007812 0.46875 -6.03125 C 0.476562 -6.101562 0.492188 -6.171875 0.515625 -6.234375 C 0.597656 -6.429688 0.757812 -6.519531 1 -6.5 C 1.082031 -6.488281 1.144531 -6.453125 1.1875 -6.390625 C 1.226562 -6.328125 1.242188 -6.257812 1.234375 -6.1875 C 1.171875 -6 1.066406 -5.835938 0.921875 -5.703125 Z M 0.921875 -5.703125 "/></g></g></g><g fill="#26a69a" fill-opacity="1"><g transform="translate(102.080714, 172.986741)"><g><path d="M 8.6875 -3.578125 C 8.863281 -3.648438 8.96875 -3.660156 9 -3.609375 C 9.03125 -3.515625 8.9375 -3.332031 8.71875 -3.0625 C 8.5 -2.800781 8.207031 -2.53125 7.84375 -2.25 C 6.945312 -1.632812 6.191406 -1.265625 5.578125 -1.140625 C 4.972656 -1.015625 4.476562 -1.050781 4.09375 -1.25 C 3.707031 -1.445312 3.421875 -1.71875 3.234375 -2.0625 C 3.003906 -2.457031 2.863281 -2.84375 2.8125 -3.21875 C 2.738281 -3.632812 2.632812 -3.867188 2.5 -3.921875 C 2.375 -3.984375 2.238281 -3.925781 2.09375 -3.75 C 1.945312 -3.582031 1.800781 -3.359375 1.65625 -3.078125 C 1.519531 -2.796875 1.40625 -2.519531 1.3125 -2.25 C 1.21875 -1.988281 1.171875 -1.785156 1.171875 -1.640625 C 1.140625 -1.566406 1.113281 -1.492188 1.09375 -1.421875 C 1.050781 -1.304688 1.007812 -1.195312 0.96875 -1.09375 C 0.851562 -0.800781 0.65625 -0.691406 0.375 -0.765625 C 0.21875 -0.796875 0.128906 -0.894531 0.109375 -1.0625 C 0.0976562 -1.175781 0.09375 -1.289062 0.09375 -1.40625 C 0.09375 -1.5 0.0859375 -1.597656 0.078125 -1.703125 C 0.0546875 -2.410156 0.0390625 -3.125 0.03125 -3.84375 C 0.03125 -3.9375 0.0664062 -4 0.140625 -4.03125 C 0.222656 -4.0625 0.316406 -4.070312 0.421875 -4.0625 C 0.535156 -4.0625 0.632812 -4.046875 0.71875 -4.015625 C 0.800781 -3.992188 0.847656 -3.953125 0.859375 -3.890625 C 0.878906 -3.773438 0.890625 -3.675781 0.890625 -3.59375 C 0.890625 -3.46875 0.894531 -3.378906 0.90625 -3.328125 C 0.925781 -3.273438 0.960938 -3.273438 1.015625 -3.328125 C 1.078125 -3.390625 1.175781 -3.507812 1.3125 -3.6875 C 1.53125 -4.03125 1.800781 -4.328125 2.125 -4.578125 C 2.269531 -4.679688 2.441406 -4.757812 2.640625 -4.8125 C 2.835938 -4.863281 3.03125 -4.875 3.21875 -4.84375 C 3.414062 -4.789062 3.566406 -4.675781 3.671875 -4.5 C 3.785156 -4.320312 3.867188 -4.125 3.921875 -3.90625 C 3.984375 -3.6875 4.03125 -3.484375 4.0625 -3.296875 C 4.070312 -3.242188 4.082031 -3.195312 4.09375 -3.15625 C 4.132812 -2.90625 4.191406 -2.675781 4.265625 -2.46875 C 4.335938 -2.269531 4.453125 -2.109375 4.609375 -1.984375 C 4.773438 -1.867188 5.019531 -1.828125 5.34375 -1.859375 C 6.03125 -1.898438 6.578125 -2.039062 6.984375 -2.28125 C 7.398438 -2.519531 7.742188 -2.773438 8.015625 -3.046875 C 8.054688 -3.078125 8.09375 -3.113281 8.125 -3.15625 C 8.195312 -3.195312 8.253906 -3.238281 8.296875 -3.28125 C 8.390625 -3.382812 8.519531 -3.484375 8.6875 -3.578125 Z M 8.6875 -3.578125 "/></g></g></g><g fill="#26a69a" fill-opacity="1"><g transform="translate(110.284666, 172.986741)"><g/></g></g><g fill="#26a69a" fill-opacity="1"><g transform="translate(113.278637, 172.986741)"><g><path d="M 8.71875 -3.40625 C 8.789062 -3.5 8.863281 -3.566406 8.9375 -3.609375 C 9.019531 -3.660156 9.066406 -3.660156 9.078125 -3.609375 C 9.097656 -3.566406 9.054688 -3.460938 8.953125 -3.296875 C 8.722656 -2.953125 8.378906 -2.625 7.921875 -2.3125 C 7.472656 -2.007812 6.976562 -1.742188 6.4375 -1.515625 C 5.894531 -1.296875 5.363281 -1.148438 4.84375 -1.078125 C 4.320312 -1.015625 3.878906 -1.050781 3.515625 -1.1875 C 3.160156 -1.320312 2.941406 -1.59375 2.859375 -2 C 2.554688 -1.507812 2.195312 -1.125 1.78125 -0.84375 C 1.363281 -0.570312 0.96875 -0.457031 0.59375 -0.5 C 0.164062 -0.5625 -0.113281 -0.722656 -0.25 -0.984375 C -0.394531 -1.242188 -0.441406 -1.539062 -0.390625 -1.875 C -0.347656 -2.207031 -0.25 -2.53125 -0.09375 -2.84375 C 0.03125 -3.070312 0.195312 -3.285156 0.40625 -3.484375 C 0.625 -3.679688 0.851562 -3.835938 1.09375 -3.953125 C 1.382812 -4.097656 1.675781 -4.164062 1.96875 -4.15625 C 2.269531 -4.144531 2.59375 -4.046875 2.9375 -3.859375 C 2.9375 -3.859375 2.9375 -3.867188 2.9375 -3.890625 C 2.9375 -3.921875 2.941406 -3.957031 2.953125 -4 C 2.972656 -4.050781 3.003906 -4.097656 3.046875 -4.140625 C 3.109375 -4.179688 3.1875 -4.210938 3.28125 -4.234375 C 3.375 -4.265625 3.460938 -4.269531 3.546875 -4.25 C 3.679688 -4.21875 3.765625 -4.144531 3.796875 -4.03125 C 3.828125 -3.925781 3.832031 -3.804688 3.8125 -3.671875 C 3.789062 -3.535156 3.769531 -3.421875 3.75 -3.328125 C 3.738281 -3.304688 3.734375 -3.289062 3.734375 -3.28125 C 3.597656 -2.707031 3.648438 -2.304688 3.890625 -2.078125 C 4.140625 -1.847656 4.492188 -1.738281 4.953125 -1.75 C 5.410156 -1.769531 5.898438 -1.867188 6.421875 -2.046875 C 6.941406 -2.222656 7.410156 -2.4375 7.828125 -2.6875 C 8.253906 -2.9375 8.550781 -3.175781 8.71875 -3.40625 Z M 0.765625 -1.265625 C 0.941406 -1.140625 1.132812 -1.148438 1.34375 -1.296875 C 1.550781 -1.453125 1.753906 -1.664062 1.953125 -1.9375 C 2.160156 -2.21875 2.328125 -2.492188 2.453125 -2.765625 C 2.578125 -3.046875 2.648438 -3.253906 2.671875 -3.390625 C 2.253906 -3.617188 1.898438 -3.660156 1.609375 -3.515625 C 1.316406 -3.367188 1.085938 -3.140625 0.921875 -2.828125 C 0.753906 -2.515625 0.65625 -2.203125 0.625 -1.890625 C 0.601562 -1.585938 0.648438 -1.378906 0.765625 -1.265625 Z M 0.765625 -1.265625 "/></g></g></g><g fill="#26a69a" fill-opacity="1"><g transform="translate(121.706548, 172.986741)"><g/></g></g><g fill="#26a69a" fill-opacity="1"><g transform="translate(124.700519, 172.986741)"><g><path d="M 1.65625 -16.359375 C 2.320312 -16.628906 2.921875 -16.570312 3.453125 -16.1875 C 3.984375 -15.8125 4.378906 -15.195312 4.640625 -14.34375 C 4.910156 -13.5 4.988281 -12.503906 4.875 -11.359375 C 4.769531 -10.210938 4.414062 -9.019531 3.8125 -7.78125 C 3.207031 -6.550781 2.296875 -5.359375 1.078125 -4.203125 C 0.992188 -4.117188 0.945312 -4.046875 0.9375 -3.984375 C 0.9375 -3.921875 0.945312 -3.859375 0.96875 -3.796875 C 0.96875 -3.753906 0.972656 -3.707031 0.984375 -3.65625 C 1.097656 -3.8125 1.25 -3.984375 1.4375 -4.171875 C 1.632812 -4.359375 1.859375 -4.515625 2.109375 -4.640625 C 2.367188 -4.773438 2.640625 -4.820312 2.921875 -4.78125 C 3.210938 -4.738281 3.515625 -4.570312 3.828125 -4.28125 C 4.066406 -4.039062 4.210938 -3.726562 4.265625 -3.34375 C 4.316406 -2.957031 4.28125 -2.5625 4.15625 -2.15625 C 4.03125 -1.75 3.8125 -1.40625 3.5 -1.125 C 3.1875 -0.851562 2.78125 -0.710938 2.28125 -0.703125 C 1.957031 -0.710938 1.695312 -0.769531 1.5 -0.875 C 1.300781 -0.988281 1.148438 -1.117188 1.046875 -1.265625 C 0.941406 -1.421875 0.875 -1.554688 0.84375 -1.671875 C 0.863281 -1.585938 0.875 -1.476562 0.875 -1.34375 C 0.882812 -1.21875 0.863281 -1.097656 0.8125 -0.984375 C 0.769531 -0.878906 0.691406 -0.820312 0.578125 -0.8125 C 0.273438 -0.8125 0.117188 -0.96875 0.109375 -1.28125 C 0.0976562 -1.59375 0.0859375 -1.898438 0.078125 -2.203125 C 0.0664062 -2.578125 0.0546875 -2.941406 0.046875 -3.296875 C 0.046875 -3.410156 0.046875 -3.53125 0.046875 -3.65625 C 0.015625 -4.207031 -0.0078125 -4.960938 -0.03125 -5.921875 C -0.0625 -6.878906 -0.0664062 -7.914062 -0.046875 -9.03125 C -0.0351562 -10.144531 0.0195312 -11.222656 0.125 -12.265625 C 0.238281 -13.316406 0.414062 -14.210938 0.65625 -14.953125 C 0.90625 -15.691406 1.238281 -16.160156 1.65625 -16.359375 Z M 1.359375 -3.296875 C 1.316406 -3.234375 1.285156 -3.175781 1.265625 -3.125 C 1.160156 -2.96875 1.097656 -2.832031 1.078125 -2.71875 C 1.054688 -2.613281 1.097656 -2.453125 1.203125 -2.234375 C 1.316406 -1.972656 1.46875 -1.765625 1.65625 -1.609375 C 1.851562 -1.460938 2.066406 -1.410156 2.296875 -1.453125 C 2.523438 -1.503906 2.753906 -1.691406 2.984375 -2.015625 C 3.117188 -2.234375 3.203125 -2.488281 3.234375 -2.78125 C 3.265625 -3.070312 3.222656 -3.34375 3.109375 -3.59375 C 3.003906 -3.84375 2.804688 -4.007812 2.515625 -4.09375 C 2.390625 -4.132812 2.253906 -4.128906 2.109375 -4.078125 C 1.960938 -4.035156 1.828125 -3.9375 1.703125 -3.78125 C 1.578125 -3.632812 1.460938 -3.472656 1.359375 -3.296875 Z M 0.9375 -4.6875 C 1.789062 -5.675781 2.519531 -6.773438 3.125 -7.984375 C 3.738281 -9.203125 4.101562 -10.4375 4.21875 -11.6875 C 4.238281 -11.96875 4.21875 -12.347656 4.15625 -12.828125 C 4.101562 -13.304688 4.003906 -13.789062 3.859375 -14.28125 C 3.710938 -14.769531 3.519531 -15.179688 3.28125 -15.515625 C 3.039062 -15.847656 2.75 -16.03125 2.40625 -16.0625 C 2.113281 -16.050781 1.875 -15.816406 1.6875 -15.359375 C 1.507812 -14.898438 1.367188 -14.296875 1.265625 -13.546875 C 1.171875 -12.796875 1.097656 -11.984375 1.046875 -11.109375 C 1.003906 -10.234375 0.976562 -9.375 0.96875 -8.53125 C 0.96875 -7.6875 0.96875 -6.929688 0.96875 -6.265625 C 0.96875 -5.503906 0.957031 -4.976562 0.9375 -4.6875 Z M 0.9375 -4.6875 "/></g></g></g><g fill="#26a69a" fill-opacity="1"><g transform="translate(129.60403, 172.986741)"><g><path d="M 1.515625 -4.3125 C 2.023438 -4.34375 2.378906 -4.109375 2.578125 -3.609375 C 2.710938 -3.242188 2.75 -2.851562 2.6875 -2.4375 C 2.625 -2.019531 2.484375 -1.671875 2.265625 -1.390625 C 2.054688 -1.140625 1.800781 -0.976562 1.5 -0.90625 C 1.207031 -0.832031 0.914062 -0.851562 0.625 -0.96875 C 0.34375 -1.09375 0.117188 -1.332031 -0.046875 -1.6875 C -0.171875 -2.007812 -0.210938 -2.328125 -0.171875 -2.640625 C -0.140625 -2.910156 -0.0664062 -3.171875 0.046875 -3.421875 C 0.179688 -3.734375 0.375 -3.957031 0.625 -4.09375 C 0.882812 -4.238281 1.179688 -4.3125 1.515625 -4.3125 Z M 1.28125 -1.328125 C 1.5 -1.460938 1.65625 -1.648438 1.75 -1.890625 C 1.84375 -2.140625 1.894531 -2.40625 1.90625 -2.6875 C 1.914062 -2.96875 1.894531 -3.226562 1.84375 -3.46875 C 1.769531 -3.8125 1.664062 -3.976562 1.53125 -3.96875 C 1.40625 -3.96875 1.273438 -3.851562 1.140625 -3.625 C 1.015625 -3.40625 0.898438 -3.140625 0.796875 -2.828125 C 0.703125 -2.523438 0.640625 -2.226562 0.609375 -1.9375 C 0.585938 -1.65625 0.628906 -1.445312 0.734375 -1.3125 C 0.835938 -1.1875 1.019531 -1.191406 1.28125 -1.328125 Z M 1.28125 -1.328125 "/></g></g></g><g fill="#26a69a" fill-opacity="1"><g transform="translate(132.768917, 172.986741)"><g><path d="M 2.890625 -6.84375 C 2.941406 -6.832031 2.976562 -6.796875 3 -6.734375 C 3.019531 -6.671875 3.019531 -6.601562 3 -6.53125 C 2.976562 -6.457031 2.941406 -6.421875 2.890625 -6.421875 L 0.984375 -6.453125 L 0.984375 -6.390625 C 0.984375 -6.109375 0.96875 -5.773438 0.9375 -5.390625 C 0.894531 -4.566406 0.875 -3.734375 0.875 -2.890625 C 0.875 -2.597656 0.890625 -2.195312 0.921875 -1.6875 C 0.960938 -1.1875 1.046875 -0.738281 1.171875 -0.34375 C 1.179688 -0.320312 1.207031 -0.273438 1.25 -0.203125 C 1.300781 -0.117188 1.347656 -0.0234375 1.390625 0.078125 C 1.441406 0.191406 1.460938 0.28125 1.453125 0.34375 C 1.453125 0.414062 1.398438 0.441406 1.296875 0.421875 C 0.960938 0.304688 0.707031 0.0351562 0.53125 -0.390625 C 0.351562 -0.816406 0.226562 -1.316406 0.15625 -1.890625 C 0.0820312 -2.460938 0.0390625 -3.019531 0.03125 -3.5625 C 0.03125 -4.101562 0.0351562 -4.546875 0.046875 -4.890625 C 0.0664062 -5.117188 0.078125 -5.347656 0.078125 -5.578125 C 0.0859375 -5.878906 0.0976562 -6.171875 0.109375 -6.453125 L -1.328125 -6.484375 C -1.453125 -6.484375 -1.519531 -6.503906 -1.53125 -6.546875 C -1.550781 -6.597656 -1.539062 -6.644531 -1.5 -6.6875 C -1.457031 -6.738281 -1.398438 -6.769531 -1.328125 -6.78125 L 0.125 -6.8125 L 0.21875 -8.203125 C 0.226562 -8.421875 0.242188 -8.644531 0.265625 -8.875 C 0.265625 -9 0.269531 -9.125 0.28125 -9.25 C 0.28125 -9.425781 0.320312 -9.59375 0.40625 -9.75 C 0.507812 -9.882812 0.632812 -9.9375 0.78125 -9.90625 C 0.914062 -9.863281 0.988281 -9.773438 1 -9.640625 C 1.019531 -9.410156 1.03125 -9.179688 1.03125 -8.953125 C 1.03125 -8.828125 1.03125 -8.695312 1.03125 -8.5625 C 1.03125 -8.414062 1.03125 -8.269531 1.03125 -8.125 L 0.984375 -6.8125 Z M 2.890625 -6.84375 "/></g></g></g><g fill="#26a69a" fill-opacity="1"><g transform="translate(134.90831, 172.986741)"><g><path d="M 3.25 -16 C 3.71875 -15.9375 4.125 -15.597656 4.46875 -14.984375 C 4.820312 -14.378906 5.0625 -13.59375 5.1875 -12.625 C 5.320312 -11.664062 5.285156 -10.625 5.078125 -9.5 C 4.867188 -8.375 4.441406 -7.269531 3.796875 -6.1875 C 3.160156 -5.101562 2.257812 -4.128906 1.09375 -3.265625 C 1.125 -2.816406 1.191406 -2.367188 1.296875 -1.921875 C 1.398438 -1.484375 1.550781 -1.132812 1.75 -0.875 C 1.925781 -0.664062 2.140625 -0.597656 2.390625 -0.671875 C 2.640625 -0.753906 2.890625 -0.921875 3.140625 -1.171875 C 3.390625 -1.421875 3.613281 -1.695312 3.8125 -2 C 4.019531 -2.300781 4.171875 -2.5625 4.265625 -2.78125 C 4.347656 -2.945312 4.425781 -3.03125 4.5 -3.03125 C 4.582031 -3.03125 4.601562 -2.945312 4.5625 -2.78125 C 4.425781 -2.382812 4.257812 -2 4.0625 -1.625 C 3.863281 -1.257812 3.601562 -0.929688 3.28125 -0.640625 C 3.039062 -0.410156 2.75 -0.257812 2.40625 -0.1875 C 1.875 -0.113281 1.441406 -0.253906 1.109375 -0.609375 C 0.773438 -0.972656 0.523438 -1.492188 0.359375 -2.171875 C 0.253906 -2.597656 0.179688 -3.234375 0.140625 -4.078125 C 0.109375 -4.921875 0.109375 -5.867188 0.140625 -6.921875 C 0.179688 -7.972656 0.269531 -9.039062 0.40625 -10.125 C 0.550781 -11.207031 0.742188 -12.195312 0.984375 -13.09375 C 1.222656 -14 1.53125 -14.71875 1.90625 -15.25 C 2.28125 -15.789062 2.726562 -16.039062 3.25 -16 Z M 1.109375 -3.984375 C 2.140625 -4.941406 2.914062 -5.953125 3.4375 -7.015625 C 3.957031 -8.085938 4.285156 -9.132812 4.421875 -10.15625 C 4.554688 -11.1875 4.566406 -12.113281 4.453125 -12.9375 C 4.335938 -13.757812 4.15625 -14.40625 3.90625 -14.875 C 3.664062 -15.351562 3.425781 -15.570312 3.1875 -15.53125 C 2.894531 -15.4375 2.632812 -15.128906 2.40625 -14.609375 C 2.1875 -14.097656 2 -13.445312 1.84375 -12.65625 C 1.6875 -11.863281 1.554688 -11.015625 1.453125 -10.109375 C 1.347656 -9.210938 1.265625 -8.34375 1.203125 -7.5 C 1.148438 -6.65625 1.113281 -5.921875 1.09375 -5.296875 C 1.082031 -4.671875 1.085938 -4.234375 1.109375 -3.984375 Z M 1.109375 -3.984375 "/></g></g></g><g fill="#26a69a" fill-opacity="1"><g transform="translate(139.098691, 172.986741)"><g><path d="M 3.25 -16 C 3.71875 -15.9375 4.125 -15.597656 4.46875 -14.984375 C 4.820312 -14.378906 5.0625 -13.59375 5.1875 -12.625 C 5.320312 -11.664062 5.285156 -10.625 5.078125 -9.5 C 4.867188 -8.375 4.441406 -7.269531 3.796875 -6.1875 C 3.160156 -5.101562 2.257812 -4.128906 1.09375 -3.265625 C 1.125 -2.816406 1.191406 -2.367188 1.296875 -1.921875 C 1.398438 -1.484375 1.550781 -1.132812 1.75 -0.875 C 1.925781 -0.664062 2.140625 -0.597656 2.390625 -0.671875 C 2.640625 -0.753906 2.890625 -0.921875 3.140625 -1.171875 C 3.390625 -1.421875 3.613281 -1.695312 3.8125 -2 C 4.019531 -2.300781 4.171875 -2.5625 4.265625 -2.78125 C 4.347656 -2.945312 4.425781 -3.03125 4.5 -3.03125 C 4.582031 -3.03125 4.601562 -2.945312 4.5625 -2.78125 C 4.425781 -2.382812 4.257812 -2 4.0625 -1.625 C 3.863281 -1.257812 3.601562 -0.929688 3.28125 -0.640625 C 3.039062 -0.410156 2.75 -0.257812 2.40625 -0.1875 C 1.875 -0.113281 1.441406 -0.253906 1.109375 -0.609375 C 0.773438 -0.972656 0.523438 -1.492188 0.359375 -2.171875 C 0.253906 -2.597656 0.179688 -3.234375 0.140625 -4.078125 C 0.109375 -4.921875 0.109375 -5.867188 0.140625 -6.921875 C 0.179688 -7.972656 0.269531 -9.039062 0.40625 -10.125 C 0.550781 -11.207031 0.742188 -12.195312 0.984375 -13.09375 C 1.222656 -14 1.53125 -14.71875 1.90625 -15.25 C 2.28125 -15.789062 2.726562 -16.039062 3.25 -16 Z M 1.109375 -3.984375 C 2.140625 -4.941406 2.914062 -5.953125 3.4375 -7.015625 C 3.957031 -8.085938 4.285156 -9.132812 4.421875 -10.15625 C 4.554688 -11.1875 4.566406 -12.113281 4.453125 -12.9375 C 4.335938 -13.757812 4.15625 -14.40625 3.90625 -14.875 C 3.664062 -15.351562 3.425781 -15.570312 3.1875 -15.53125 C 2.894531 -15.4375 2.632812 -15.128906 2.40625 -14.609375 C 2.1875 -14.097656 2 -13.445312 1.84375 -12.65625 C 1.6875 -11.863281 1.554688 -11.015625 1.453125 -10.109375 C 1.347656 -9.210938 1.265625 -8.34375 1.203125 -7.5 C 1.148438 -6.65625 1.113281 -5.921875 1.09375 -5.296875 C 1.082031 -4.671875 1.085938 -4.234375 1.109375 -3.984375 Z M 1.109375 -3.984375 "/></g></g></g><g fill="#26a69a" fill-opacity="1"><g transform="translate(143.289071, 172.986741)"><g><path d="M 5.25 -2.828125 C 5.320312 -2.867188 5.398438 -2.898438 5.484375 -2.921875 C 5.566406 -2.941406 5.617188 -2.9375 5.640625 -2.90625 C 5.660156 -2.882812 5.625 -2.820312 5.53125 -2.71875 C 5.257812 -2.40625 4.9375 -2.117188 4.5625 -1.859375 C 4.1875 -1.609375 3.800781 -1.394531 3.40625 -1.21875 C 3.09375 -1.082031 2.765625 -0.972656 2.421875 -0.890625 C 2.078125 -0.804688 1.734375 -0.785156 1.390625 -0.828125 C 1.054688 -0.878906 0.753906 -1.03125 0.484375 -1.28125 C 0.148438 -1.613281 -0.03125 -2.03125 -0.0625 -2.53125 C -0.09375 -3.039062 0.0234375 -3.472656 0.296875 -3.828125 C 0.648438 -4.222656 1.097656 -4.476562 1.640625 -4.59375 C 2.179688 -4.707031 2.664062 -4.617188 3.09375 -4.328125 C 3.300781 -4.179688 3.382812 -4.007812 3.34375 -3.8125 C 3.3125 -3.625 3.207031 -3.441406 3.03125 -3.265625 C 2.863281 -3.097656 2.675781 -2.972656 2.46875 -2.890625 C 2.15625 -2.765625 1.875 -2.738281 1.625 -2.8125 C 1.382812 -2.882812 1.195312 -2.984375 1.0625 -3.109375 C 0.96875 -3.078125 0.90625 -2.9375 0.875 -2.6875 C 0.8125 -2.238281 0.953125 -1.875 1.296875 -1.59375 C 1.585938 -1.375 1.953125 -1.3125 2.390625 -1.40625 C 2.828125 -1.507812 3.273438 -1.6875 3.734375 -1.9375 C 4.191406 -2.1875 4.597656 -2.421875 4.953125 -2.640625 C 5.066406 -2.703125 5.164062 -2.765625 5.25 -2.828125 Z M 2.375 -3.96875 C 2.332031 -4.03125 2.25 -4.054688 2.125 -4.046875 C 2.007812 -4.035156 1.890625 -4 1.765625 -3.9375 C 1.640625 -3.875 1.53125 -3.8125 1.4375 -3.75 C 1.34375 -3.6875 1.304688 -3.640625 1.328125 -3.609375 C 1.328125 -3.597656 1.335938 -3.570312 1.359375 -3.53125 C 1.378906 -3.488281 1.410156 -3.445312 1.453125 -3.40625 C 1.492188 -3.363281 1.550781 -3.332031 1.625 -3.3125 C 1.695312 -3.300781 1.789062 -3.304688 1.90625 -3.328125 C 2.082031 -3.378906 2.207031 -3.445312 2.28125 -3.53125 C 2.351562 -3.613281 2.394531 -3.691406 2.40625 -3.765625 C 2.414062 -3.847656 2.40625 -3.914062 2.375 -3.96875 Z M 2.375 -3.96875 "/></g></g></g></svg>